# xmcd
#
# Track frame offsets: 
#        150
#        18535
#        37969
#        57912
#        73517
#        82762
#        101668
#        118473
#        134825
#        154593
#        186307
#        215530
#
# Disc length: 2917 seconds
#
# Revision: 0
# Processed by: cddbd v1.5.1PL2 Copyright (c) Steve Scherf et al.
# Submitted via: ExactAudioCopy v0.90b4
#
DISCID=ab0b630c
DTITLE=The Fat Tones - Struttin'
DYEAR=2006
DGENRE=Blues
TTITLE0=Old pair Of Shoes
TTITLE1=Funkin' Off
TTITLE2=Can You See Me Walkin'
TTITLE3=Hard On Me
TTITLE4=Lean machine
TTITLE5=Black Eyes
TTITLE6=Standin' By The Road
TTITLE7=Radio
TTITLE8=Hung Over You
TTITLE9=Good Thing Goin'
TTITLE10=Struttin'
TTITLE11=Liner Notes
EXTD=
EXTT0=
EXTT1=
EXTT2=
EXTT3=
EXTT4=
EXTT5=
EXTT6=
EXTT7=
EXTT8=
EXTT9=
EXTT10=
EXTT11=
PLAYORDER=
